<svg width="388" height="388" viewBox="0 0 388 388" fill="none" xmlns="http://www.w3.org/2000/svg">
<rect width="388" height="388" rx="50" fill="#427E00"/>
<g clip-path="url(#clip0_679_261)">
<path d="M160.88 58C160.964 58.0302 161.01 58.0516 161.079 58.0996C161.105 58.1182 161.105 58.1182 161.133 58.1372C161.151 58.1504 161.17 58.1636 161.189 58.1771C161.229 58.2045 161.268 58.2319 161.308 58.2592C161.327 58.2725 161.346 58.2857 161.365 58.2994C161.431 58.3442 161.497 58.3875 161.564 58.43C161.699 58.5154 161.83 58.6043 161.962 58.6935C162.08 58.7738 162.199 58.8533 162.318 58.9324C162.453 59.0218 162.588 59.112 162.722 59.2027C162.921 59.3376 163.121 59.4708 163.322 59.6036C163.54 59.7481 163.757 59.8932 163.974 60.0398C164.108 60.131 164.244 60.2212 164.38 60.3111C164.483 60.3794 164.585 60.4481 164.687 60.5174C164.806 60.598 164.926 60.6779 165.045 60.7574C165.062 60.7684 165.078 60.7793 165.095 60.7906C165.178 60.8453 165.26 60.8999 165.343 60.9544C165.536 61.0823 165.728 61.2123 165.918 61.3438C166.028 61.4192 166.139 61.4927 166.252 61.5641C166.363 61.6353 166.472 61.7103 166.58 61.7854C166.711 61.8758 166.843 61.9648 166.977 62.0504C167.1 62.1287 167.22 62.2106 167.341 62.2923C167.461 62.3737 167.581 62.4545 167.703 62.5347C167.822 62.6138 167.941 62.6933 168.059 62.7736C168.261 62.9102 168.464 63.0446 168.667 63.1791C168.869 63.3127 169.07 63.4472 169.27 63.5828C169.387 63.6618 169.504 63.74 169.622 63.8179C169.757 63.9073 169.891 63.9975 170.025 64.0883C170.224 64.2231 170.424 64.3563 170.625 64.4892C170.843 64.6336 171.061 64.7787 171.277 64.9253C171.412 65.0165 171.547 65.1067 171.683 65.1967C171.786 65.2649 171.888 65.3336 171.99 65.4029C172.109 65.4835 172.229 65.5634 172.349 65.643C172.365 65.6539 172.382 65.6648 172.399 65.6761C172.481 65.7308 172.564 65.7854 172.646 65.8399C172.84 65.9679 173.031 66.0978 173.222 66.2293C173.331 66.3047 173.442 66.3782 173.555 66.4496C173.667 66.5208 173.775 66.5959 173.883 66.6709C174.014 66.7613 174.146 66.8503 174.281 66.9359C174.404 67.0143 174.524 67.0961 174.644 67.1778C174.764 67.2593 174.885 67.34 175.006 67.4203C175.125 67.4994 175.244 67.5789 175.363 67.6592C175.564 67.7957 175.767 67.9301 175.97 68.0646C176.172 68.1983 176.373 68.3327 176.573 68.4683C176.69 68.5473 176.807 68.6256 176.925 68.7034C177.06 68.7928 177.194 68.883 177.328 68.9738C177.527 69.1086 177.728 69.2419 177.928 69.3747C178.146 69.5191 178.364 69.6642 178.58 69.8108C178.715 69.902 178.85 69.9923 178.986 70.0822C179.089 70.1504 179.192 70.2192 179.294 70.2884C179.413 70.369 179.532 70.449 179.652 70.5285C179.668 70.5394 179.685 70.5504 179.702 70.5616C179.784 70.6163 179.867 70.6709 179.949 70.7254C180.143 70.8534 180.334 70.9833 180.525 71.1148C180.635 71.1903 180.745 71.2637 180.858 71.3351C180.97 71.4063 181.078 71.4814 181.187 71.5564C181.318 71.6468 181.449 71.7359 181.584 71.8214C181.707 71.8998 181.827 71.9817 181.947 72.0633C182.067 72.1448 182.188 72.2256 182.309 72.3058C182.442 72.3938 182.574 72.4826 182.706 72.572C182.813 72.6443 182.92 72.7158 183.028 72.7871C183.149 72.8674 183.27 72.948 183.39 73.0295C183.509 73.1101 183.628 73.1901 183.748 73.2696C183.765 73.2805 183.781 73.2915 183.798 73.3028C183.881 73.3574 183.963 73.412 184.046 73.4666C184.22 73.582 184.394 73.6987 184.566 73.8174C184.694 73.9062 184.824 73.9936 184.956 74.0777C185.061 74.1446 185.164 74.2139 185.266 74.2835C185.403 74.3762 185.54 74.4684 185.678 74.5597C185.694 74.5704 185.71 74.5811 185.726 74.5921C185.775 74.6244 185.824 74.6568 185.873 74.6891C186.073 74.8218 186.273 74.9547 186.472 75.0895C186.576 75.1603 186.682 75.2301 186.787 75.2998C186.931 75.3947 187.072 75.4913 187.214 75.5888C187.342 75.6777 187.472 75.7651 187.604 75.8492C187.709 75.916 187.812 75.9854 187.915 76.055C188.142 76.2092 188.37 76.3614 188.6 76.5127C188.763 76.62 188.925 76.7287 189.086 76.838C189.22 76.9288 189.355 77.0185 189.49 77.1079C189.63 77.201 189.77 77.2952 189.909 77.3896C189.994 77.4469 190.079 77.5039 190.165 77.5596C190.276 77.6318 190.384 77.7071 190.493 77.7822C190.625 77.8729 190.757 77.9622 190.892 78.0481C191.004 78.1193 191.112 78.1943 191.221 78.2693C191.354 78.361 191.487 78.4513 191.624 78.538C191.731 78.6063 191.835 78.6772 191.94 78.7484C192.015 78.7992 192.09 78.8494 192.166 78.8987C192.279 78.9721 192.389 79.0485 192.5 79.1248C192.631 79.2155 192.764 79.3048 192.899 79.3906C193.011 79.4619 193.119 79.5369 193.228 79.6119C193.361 79.7037 193.494 79.794 193.631 79.8809C193.734 79.9465 193.834 80.0145 193.935 80.0829C194.044 80.1566 194.153 80.2294 194.262 80.3019C194.383 80.3821 194.504 80.4628 194.624 80.5443C194.743 80.6249 194.863 80.7049 194.983 80.7844C194.999 80.7953 195.015 80.8062 195.032 80.8175C195.115 80.8722 195.197 80.9268 195.28 80.9813C195.474 81.1093 195.665 81.2392 195.856 81.3707C195.965 81.4462 196.076 81.5196 196.189 81.591C196.3 81.6622 196.409 81.7373 196.517 81.8123C196.648 81.9027 196.78 81.9917 196.915 82.0773C197.019 82.1441 197.122 82.2135 197.225 82.2831C197.361 82.3758 197.498 82.468 197.636 82.5593C197.652 82.5701 197.668 82.5808 197.685 82.5918C197.766 82.6455 197.847 82.6991 197.928 82.7526C198.122 82.8806 198.313 83.0106 198.504 83.1422C198.613 83.2176 198.724 83.2911 198.837 83.3625C198.949 83.4337 199.057 83.5087 199.166 83.5838C199.296 83.6742 199.428 83.7632 199.563 83.8488C199.686 83.9271 199.806 84.009 199.926 84.0907C200.046 84.1722 200.167 84.2529 200.288 84.3331C200.407 84.4122 200.526 84.4917 200.645 84.5721C200.764 84.6527 200.883 84.7326 201.003 84.8121C201.02 84.8231 201.036 84.834 201.053 84.8453C201.135 84.9 201.218 84.9546 201.301 85.0091C201.494 85.137 201.686 85.267 201.876 85.3985C201.986 85.4739 202.096 85.5474 202.209 85.6188C202.321 85.69 202.429 85.765 202.538 85.8401C202.669 85.9305 202.8 86.0195 202.935 86.1051C203.058 86.1834 203.178 86.2653 203.298 86.347C203.419 86.4284 203.539 86.5092 203.66 86.5894C203.78 86.6685 203.899 86.748 204.017 86.8283C204.136 86.909 204.256 86.9889 204.375 87.0684C204.392 87.0794 204.408 87.0903 204.425 87.1016C204.508 87.1563 204.59 87.2109 204.673 87.2654C204.866 87.3933 205.058 87.5233 205.249 87.6548C205.358 87.7302 205.469 87.8037 205.582 87.8751C205.693 87.9463 205.802 88.0213 205.91 88.0963C206.041 88.1867 206.173 88.2758 206.307 88.3614C206.412 88.4282 206.515 88.4976 206.618 88.5672C206.754 88.6599 206.891 88.7521 207.029 88.8434C207.045 88.8541 207.061 88.8647 207.077 88.8757C207.126 88.9081 207.175 88.9404 207.224 88.9728C207.428 89.108 207.632 89.2436 207.835 89.3809C207.908 89.4308 207.982 89.4801 208.057 89.5287C208.163 89.5978 208.268 89.6687 208.372 89.7396C208.51 89.8327 208.647 89.9253 208.786 90.017C208.921 90.1064 209.056 90.1966 209.189 90.2874C209.389 90.4222 209.589 90.5554 209.789 90.6883C210.008 90.8327 210.225 90.9779 210.442 91.1245C210.574 91.2143 210.708 91.3031 210.841 91.3916C210.982 91.4846 211.121 91.5788 211.26 91.6732C211.345 91.7305 211.43 91.7875 211.516 91.8432C211.627 91.9155 211.735 91.9908 211.844 92.0658C211.976 92.1566 212.108 92.2459 212.243 92.3317C212.355 92.4029 212.464 92.478 212.572 92.553C212.705 92.6446 212.838 92.7349 212.975 92.8217C213.082 92.8899 213.187 92.9608 213.291 93.032C213.366 93.0828 213.441 93.1331 213.517 93.1823C213.63 93.2558 213.74 93.3322 213.851 93.4084C213.983 93.4992 214.115 93.5885 214.25 93.6743C214.362 93.7455 214.47 93.8205 214.579 93.8956C214.712 93.9873 214.845 94.0776 214.982 94.1645C215.085 94.2301 215.186 94.2982 215.286 94.3666C215.395 94.4402 215.504 94.513 215.613 94.5855C215.735 94.6658 215.855 94.7465 215.976 94.8279C216.094 94.9086 216.214 94.9885 216.334 95.068C216.35 95.079 216.367 95.0899 216.384 95.1012C216.466 95.1558 216.549 95.2104 216.631 95.265C216.825 95.3929 217.016 95.5228 217.207 95.6544C217.316 95.7298 217.427 95.8032 217.54 95.8747C217.652 95.9459 217.76 96.0209 217.869 96.0959C217.999 96.1863 218.131 96.2754 218.266 96.3609C218.371 96.4278 218.473 96.4971 218.576 96.5668C218.712 96.6594 218.849 96.7517 218.987 96.843C219.003 96.8537 219.019 96.8644 219.036 96.8755C219.117 96.9291 219.198 96.9827 219.279 97.0362C219.473 97.1642 219.664 97.2942 219.855 97.4258C219.965 97.5013 220.075 97.5747 220.188 97.6461C220.319 97.7298 220.446 97.8187 220.574 97.9069C220.674 97.9761 220.775 98.0443 220.879 98.1098C221.002 98.1878 221.121 98.2697 221.241 98.3522C221.372 98.4426 221.503 98.5317 221.638 98.6172C221.743 98.6841 221.846 98.7534 221.948 98.8231C222.085 98.9157 222.222 99.008 222.359 99.0993C222.376 99.11 222.392 99.1207 222.408 99.1318C222.489 99.1854 222.57 99.239 222.651 99.2925C222.845 99.4205 223.037 99.5505 223.227 99.6821C223.337 99.7576 223.448 99.831 223.56 99.9024C223.672 99.9736 223.781 100.049 223.889 100.124C224.02 100.214 224.151 100.303 224.286 100.389C224.409 100.467 224.529 100.549 224.65 100.631C224.77 100.712 224.89 100.793 225.011 100.873C225.131 100.952 225.25 101.032 225.368 101.112C225.487 101.193 225.607 101.273 225.727 101.352C225.743 101.363 225.76 101.374 225.777 101.385C225.859 101.44 225.941 101.495 226.024 101.549C226.199 101.664 226.372 101.781 226.544 101.9C226.674 101.99 226.806 102.079 226.94 102.164C227.043 102.23 227.144 102.298 227.245 102.366C227.352 102.439 227.459 102.51 227.567 102.582C227.703 102.672 227.84 102.764 227.975 102.855C228.174 102.99 228.375 103.124 228.575 103.256C228.779 103.392 228.983 103.527 229.186 103.665C229.259 103.714 229.333 103.764 229.408 103.812C229.514 103.881 229.619 103.952 229.723 104.023C229.861 104.116 229.999 104.209 230.137 104.301C230.294 104.404 230.449 104.509 230.604 104.614C230.689 104.672 230.774 104.729 230.86 104.784C230.971 104.857 231.08 104.932 231.188 105.007C231.32 105.098 231.452 105.187 231.588 105.273C231.7 105.344 231.808 105.419 231.916 105.494C232.049 105.586 232.182 105.676 232.319 105.763C232.426 105.831 232.531 105.902 232.636 105.973C232.711 106.024 232.786 106.074 232.862 106.123C232.975 106.197 233.085 106.273 233.195 106.349C233.327 106.44 233.459 106.53 233.595 106.615C233.706 106.687 233.815 106.762 233.923 106.837C234.056 106.928 234.19 107.019 234.326 107.106C234.429 107.171 234.53 107.239 234.631 107.308C234.739 107.381 234.848 107.454 234.958 107.527C235.079 107.607 235.2 107.688 235.32 107.769C235.439 107.85 235.558 107.93 235.678 108.009C235.695 108.02 235.711 108.031 235.728 108.042C235.81 108.097 235.893 108.152 235.976 108.206C236.169 108.334 236.361 108.464 236.551 108.595C236.661 108.671 236.771 108.744 236.884 108.816C236.996 108.887 237.104 108.962 237.213 109.037C237.344 109.127 237.475 109.216 237.61 109.302C237.715 109.369 237.818 109.438 237.92 109.508C238.057 109.6 238.194 109.693 238.331 109.784C238.348 109.795 238.364 109.805 238.38 109.817C238.461 109.87 238.542 109.924 238.623 109.977C238.817 110.105 239.009 110.235 239.199 110.367C239.309 110.442 239.42 110.516 239.532 110.587C239.644 110.658 239.753 110.733 239.861 110.808C239.992 110.899 240.123 110.988 240.258 111.073C240.381 111.152 240.501 111.234 240.622 111.315C240.742 111.397 240.862 111.478 240.984 111.558C241.103 111.637 241.222 111.716 241.34 111.797C241.459 111.877 241.579 111.957 241.699 112.037C241.715 112.048 241.732 112.059 241.749 112.07C241.831 112.125 241.913 112.179 241.996 112.234C242.189 112.362 242.381 112.491 242.571 112.623C242.698 112.71 242.827 112.795 242.958 112.878C242.987 112.897 242.987 112.897 243.016 112.916C243.043 112.929 243.043 112.929 243.071 112.942C243.148 113.018 243.134 113.096 243.133 113.196C243.133 113.228 243.133 113.228 243.133 113.261C243.133 113.321 243.133 113.38 243.133 113.44C243.132 113.505 243.133 113.571 243.133 113.636C243.133 113.751 243.133 113.866 243.133 113.981C243.132 114.154 243.132 114.327 243.133 114.499C243.133 114.795 243.133 115.091 243.133 115.387C243.132 115.688 243.132 115.99 243.132 116.291C243.132 116.31 243.132 116.329 243.132 116.349C243.132 116.446 243.132 116.544 243.132 116.641C243.133 117.354 243.132 118.066 243.132 118.779C243.132 119.502 243.131 120.224 243.131 120.947C243.131 120.97 243.131 120.992 243.131 121.016C243.131 121.224 243.131 121.433 243.131 121.642C243.131 122.165 243.131 122.688 243.131 123.211C243.131 123.235 243.131 123.259 243.131 123.284C243.131 124.467 243.131 125.649 243.131 126.832C243.13 127.249 243.13 127.665 243.13 128.082C243.13 128.108 243.13 128.134 243.13 128.16C243.13 129.359 243.13 130.558 243.129 131.757C243.129 131.835 243.129 131.914 243.129 131.992C243.129 132.465 243.129 132.937 243.129 133.41C243.129 134.585 243.129 135.76 243.129 136.935C243.129 136.962 243.129 136.989 243.129 137.016C243.129 138.749 243.129 140.482 243.128 142.215C243.128 142.243 243.128 142.271 243.128 142.299C243.128 143.142 243.128 143.984 243.127 144.827C243.127 145.759 243.127 146.691 243.127 147.623C243.127 147.651 243.127 147.679 243.127 147.708C243.126 150.342 243.126 152.975 243.125 155.609C243.125 155.779 243.125 155.95 243.125 156.12C243.125 157.896 243.125 159.672 243.125 161.448C243.125 161.486 243.125 161.486 243.125 161.525C243.125 161.643 243.125 161.761 243.125 161.879C243.124 170.482 243.122 179.086 243.12 187.69C222.651 187.69 202.182 187.69 181.094 187.69C181.094 204.268 181.094 220.845 181.094 237.925C174.423 237.925 167.753 237.925 160.88 237.925C160.88 178.55 160.88 119.175 160.88 58ZM181.094 94.2126C181.094 119.048 181.094 143.884 181.094 169.472C194.892 169.472 208.69 169.472 222.906 169.472C222.908 161.279 222.908 161.279 222.909 153.086C222.909 153.008 222.909 152.931 222.909 152.853C222.909 152.829 222.909 152.829 222.909 152.805C222.91 151.678 222.91 150.552 222.91 149.425C222.91 149.317 222.91 149.21 222.91 149.102C222.91 147.434 222.91 145.766 222.911 144.098C222.911 144.081 222.911 144.063 222.911 144.045C222.911 143.454 222.911 142.864 222.911 142.274C222.911 141.74 222.911 141.207 222.911 140.674C222.911 140.656 222.911 140.638 222.911 140.62C222.912 139.524 222.912 138.427 222.912 137.33C222.912 137.304 222.912 137.304 222.912 137.278C222.912 136.535 222.912 135.791 222.912 135.047C222.912 134.748 222.912 134.449 222.912 134.15C222.912 134.1 222.912 134.05 222.912 134.001C222.912 133.241 222.912 132.482 222.913 131.723C222.913 131.707 222.913 131.69 222.913 131.673C222.913 131.41 222.913 131.146 222.913 130.882C222.913 130.134 222.913 129.386 222.913 128.638C222.913 128.623 222.913 128.608 222.913 128.592C222.913 128.262 222.913 127.931 222.913 127.6C222.913 127.468 222.913 127.336 222.913 127.204C222.913 127.19 222.913 127.176 222.913 127.161C222.913 126.704 222.914 126.247 222.914 125.79C222.914 125.328 222.914 124.865 222.914 124.403C222.914 124.14 222.914 123.877 222.914 123.614C222.914 123.439 222.914 123.265 222.914 123.091C222.914 122.991 222.914 122.892 222.914 122.793C222.914 122.703 222.914 122.614 222.914 122.524C222.914 122.492 222.914 122.459 222.914 122.427C222.915 122.383 222.914 122.34 222.914 122.296C222.914 122.272 222.914 122.247 222.914 122.223C222.912 122.165 222.912 122.165 222.879 122.128C222.842 122.104 222.842 122.104 222.782 122.109C222.775 122.09 222.769 122.072 222.762 122.053C222.72 122.023 222.679 121.996 222.636 121.97C222.61 121.953 222.583 121.937 222.557 121.92C222.536 121.907 222.536 121.907 222.515 121.894C222.442 121.847 222.372 121.799 222.301 121.751C222.111 121.595 222.111 121.595 221.893 121.512C221.893 121.5 221.893 121.487 221.893 121.475C221.843 121.432 221.786 121.397 221.731 121.36C221.716 121.35 221.7 121.339 221.685 121.329C221.67 121.319 221.655 121.309 221.64 121.298C221.627 121.289 221.613 121.28 221.599 121.271C221.56 121.246 221.56 121.246 221.5 121.251C221.493 121.232 221.486 121.214 221.479 121.195C221.439 121.167 221.4 121.141 221.359 121.116C221.332 121.099 221.305 121.082 221.279 121.066C221.257 121.052 221.257 121.052 221.235 121.038C221.152 120.984 221.07 120.929 220.989 120.873C220.852 120.781 220.715 120.688 220.578 120.597C220.561 120.586 220.545 120.576 220.529 120.565C220.48 120.532 220.431 120.5 220.382 120.468C220.315 120.423 220.249 120.379 220.182 120.335C220.158 120.319 220.158 120.319 220.133 120.302C220.053 120.249 219.973 120.196 219.895 120.142C219.88 120.131 219.865 120.121 219.849 120.111C219.821 120.091 219.793 120.072 219.765 120.052C219.697 120.006 219.637 119.97 219.555 119.946C219.555 119.933 219.555 119.921 219.555 119.908C219.534 119.908 219.514 119.908 219.493 119.908C219.486 119.89 219.479 119.871 219.472 119.852C219.431 119.823 219.39 119.796 219.347 119.77C219.32 119.753 219.294 119.736 219.267 119.72C219.246 119.707 219.246 119.707 219.225 119.693C219.153 119.647 219.082 119.599 219.012 119.55C218.821 119.395 218.821 119.395 218.603 119.312C218.603 119.299 218.603 119.287 218.603 119.274C218.571 119.248 218.571 119.248 218.529 119.221C218.513 119.211 218.497 119.2 218.48 119.189C218.454 119.173 218.454 119.173 218.427 119.155C218.391 119.132 218.355 119.108 218.319 119.085C218.301 119.073 218.283 119.061 218.264 119.049C218.213 119.015 218.162 118.981 218.112 118.946C218.097 118.936 218.082 118.925 218.067 118.915C218.039 118.895 218.01 118.876 217.982 118.856C217.908 118.802 217.908 118.802 217.817 118.789C217.81 118.771 217.803 118.752 217.796 118.733C217.764 118.707 217.764 118.707 217.724 118.683C217.709 118.673 217.694 118.664 217.679 118.654C217.662 118.644 217.646 118.633 217.629 118.623C217.595 118.601 217.561 118.579 217.526 118.557C217.509 118.546 217.492 118.535 217.474 118.523C217.402 118.477 217.33 118.429 217.26 118.38C217.139 118.298 217.018 118.217 216.896 118.137C216.769 118.053 216.642 117.968 216.516 117.883C216.503 117.874 216.489 117.865 216.475 117.855C216.463 117.847 216.45 117.838 216.437 117.83C216.426 117.822 216.414 117.814 216.402 117.805C216.371 117.784 216.341 117.762 216.312 117.739C216.266 117.702 216.266 117.702 216.203 117.708C216.196 117.689 216.189 117.671 216.182 117.652C216.14 117.621 216.097 117.593 216.052 117.566C216.025 117.549 215.998 117.532 215.972 117.515C215.958 117.507 215.945 117.498 215.931 117.49C215.877 117.455 215.824 117.42 215.771 117.384C215.751 117.37 215.732 117.357 215.711 117.343C215.66 117.308 215.609 117.273 215.558 117.237C215.528 117.217 215.497 117.196 215.467 117.175C215.453 117.165 215.439 117.155 215.424 117.145C215.411 117.136 215.397 117.126 215.383 117.117C215.371 117.109 215.359 117.1 215.347 117.092C215.311 117.069 215.311 117.069 215.251 117.074C215.245 117.055 215.238 117.037 215.231 117.018C215.191 116.987 215.152 116.959 215.109 116.931C215.098 116.923 215.087 116.915 215.075 116.907C215.006 116.86 215.006 116.86 214.92 116.85C214.914 116.832 214.907 116.813 214.9 116.794C214.859 116.765 214.818 116.738 214.774 116.711C214.748 116.695 214.721 116.678 214.695 116.662C214.674 116.648 214.674 116.648 214.653 116.635C214.581 116.589 214.51 116.541 214.439 116.492C214.249 116.337 214.249 116.337 214.031 116.253C214.031 116.241 214.031 116.229 214.031 116.216C213.988 116.185 213.945 116.156 213.9 116.128C213.872 116.109 213.843 116.091 213.815 116.072C213.799 116.062 213.784 116.052 213.768 116.042C213.685 115.988 213.603 115.933 213.52 115.878C213.503 115.867 213.486 115.856 213.469 115.844C213.361 115.772 213.253 115.7 213.146 115.627C213.041 115.557 212.936 115.487 212.831 115.418C212.756 115.368 212.681 115.318 212.608 115.267C212.596 115.259 212.585 115.251 212.573 115.243C212.543 115.222 212.514 115.202 212.484 115.181C212.438 115.148 212.438 115.148 212.376 115.153C212.371 115.143 212.367 115.132 212.363 115.121C212.324 115.063 212.27 115.033 212.209 114.996C212.071 114.911 211.939 114.82 211.809 114.726C211.795 114.717 211.78 114.707 211.766 114.696C211.753 114.687 211.741 114.678 211.728 114.669C211.691 114.645 211.691 114.645 211.631 114.65C211.624 114.631 211.617 114.613 211.61 114.594C211.573 114.566 211.573 114.566 211.526 114.539C211.429 114.48 211.336 114.418 211.243 114.355C211.132 114.28 211.021 114.205 210.909 114.132C210.897 114.124 210.885 114.116 210.872 114.108C210.813 114.066 210.813 114.066 210.741 114.053C210.741 114.041 210.741 114.028 210.741 114.016C210.71 113.99 210.71 113.99 210.669 113.964C210.653 113.954 210.638 113.944 210.621 113.933C210.604 113.922 210.587 113.911 210.569 113.899C210.533 113.875 210.497 113.852 210.46 113.828C210.442 113.816 210.423 113.804 210.404 113.791C210.318 113.735 210.233 113.678 210.148 113.622C210.131 113.611 210.115 113.6 210.098 113.589C209.981 113.511 209.865 113.433 209.749 113.354C209.577 113.238 209.404 113.124 209.231 113.009C209.038 112.881 208.846 112.753 208.654 112.624C208.641 112.615 208.627 112.606 208.614 112.597C208.601 112.588 208.588 112.58 208.575 112.571C208.564 112.563 208.552 112.555 208.54 112.547C208.509 112.526 208.479 112.503 208.45 112.48C208.405 112.444 208.405 112.444 208.341 112.449C208.334 112.431 208.328 112.412 208.321 112.393C208.279 112.364 208.238 112.337 208.195 112.311C208.169 112.294 208.142 112.278 208.116 112.261C208.102 112.252 208.088 112.243 208.074 112.234C208.001 112.188 207.931 112.14 207.86 112.092C207.67 111.936 207.67 111.936 207.452 111.853C207.452 111.84 207.452 111.828 207.452 111.815C207.402 111.773 207.345 111.738 207.29 111.701C207.267 111.685 207.267 111.685 207.244 111.669C207.222 111.654 207.222 111.654 207.199 111.639C207.179 111.626 207.179 111.626 207.158 111.612C207.119 111.587 207.119 111.587 207.059 111.592C207.059 111.579 207.059 111.567 207.059 111.554C207.008 111.512 206.952 111.477 206.897 111.44C206.874 111.424 206.874 111.424 206.851 111.408C206.829 111.393 206.829 111.393 206.806 111.378C206.786 111.365 206.786 111.365 206.765 111.351C206.726 111.326 206.726 111.326 206.665 111.331C206.659 111.312 206.652 111.294 206.645 111.275C206.613 111.248 206.613 111.248 206.573 111.224C206.558 111.214 206.543 111.205 206.527 111.195C206.511 111.185 206.495 111.174 206.478 111.164C206.444 111.142 206.409 111.12 206.375 111.098C206.358 111.087 206.34 111.076 206.322 111.065C206.25 111.018 206.179 110.97 206.108 110.922C205.988 110.84 205.866 110.759 205.745 110.678C205.618 110.594 205.491 110.509 205.365 110.424C205.351 110.415 205.338 110.406 205.324 110.396C205.311 110.388 205.299 110.379 205.286 110.371C205.274 110.363 205.262 110.355 205.25 110.347C205.219 110.325 205.19 110.303 205.16 110.28C205.115 110.243 205.115 110.243 205.052 110.249C205.045 110.231 205.038 110.212 205.031 110.193C204.988 110.163 204.945 110.135 204.9 110.107C204.874 110.09 204.847 110.073 204.82 110.056C204.807 110.048 204.793 110.039 204.779 110.031C204.727 109.997 204.675 109.962 204.624 109.927C204.499 109.842 204.373 109.759 204.247 109.676C204.169 109.625 204.093 109.573 204.017 109.52C204.005 109.511 203.992 109.502 203.98 109.493C203.947 109.47 203.915 109.446 203.882 109.423C203.833 109.386 203.833 109.386 203.769 109.391C203.762 109.373 203.755 109.354 203.748 109.335C203.707 109.306 203.666 109.279 203.623 109.253C203.596 109.236 203.57 109.219 203.544 109.203C203.53 109.194 203.516 109.185 203.501 109.176C203.429 109.13 203.359 109.082 203.288 109.033C203.097 108.878 203.097 108.878 202.879 108.795C202.879 108.782 202.879 108.77 202.879 108.757C202.837 108.726 202.794 108.697 202.749 108.669C202.72 108.65 202.692 108.632 202.663 108.613C202.648 108.603 202.633 108.593 202.617 108.583C202.534 108.529 202.451 108.474 202.369 108.419C202.352 108.408 202.335 108.397 202.317 108.385C202.209 108.313 202.102 108.241 201.994 108.168C201.89 108.098 201.785 108.028 201.68 107.959C201.605 107.909 201.53 107.859 201.456 107.808C201.439 107.796 201.439 107.796 201.422 107.784C201.392 107.764 201.362 107.743 201.333 107.722C201.287 107.689 201.287 107.689 201.224 107.694C201.22 107.684 201.216 107.673 201.211 107.662C201.173 107.604 201.118 107.574 201.057 107.537C200.92 107.452 200.788 107.361 200.657 107.268C200.643 107.258 200.629 107.248 200.614 107.237C200.595 107.224 200.595 107.224 200.576 107.21C200.539 107.186 200.539 107.186 200.479 107.191C200.473 107.172 200.466 107.154 200.459 107.135C200.418 107.106 200.377 107.079 200.333 107.052C200.307 107.036 200.28 107.019 200.254 107.002C200.24 106.994 200.226 106.985 200.212 106.976C200.14 106.93 200.069 106.881 199.998 106.833C199.808 106.677 199.808 106.677 199.59 106.594C199.59 106.582 199.59 106.57 199.59 106.557C199.559 106.531 199.559 106.531 199.518 106.505C199.502 106.495 199.486 106.485 199.47 106.474C199.453 106.463 199.435 106.452 199.418 106.44C199.381 106.417 199.345 106.393 199.309 106.369C199.29 106.357 199.272 106.345 199.252 106.332C199.167 106.276 199.081 106.22 198.996 106.163C198.98 106.152 198.964 106.141 198.947 106.13C198.841 106.06 198.736 105.989 198.632 105.918C198.525 105.846 198.418 105.774 198.31 105.704C198.297 105.696 198.285 105.688 198.273 105.679C198.213 105.638 198.213 105.638 198.141 105.625C198.141 105.612 198.141 105.6 198.141 105.587C198.104 105.558 198.104 105.558 198.052 105.527C198.032 105.513 198.011 105.5 197.99 105.487C197.978 105.479 197.966 105.471 197.954 105.464C197.875 105.413 197.798 105.361 197.72 105.31C197.703 105.299 197.686 105.288 197.669 105.276C197.591 105.224 197.514 105.173 197.438 105.119C197.426 105.11 197.413 105.101 197.401 105.092C197.368 105.069 197.335 105.046 197.303 105.022C197.254 104.985 197.254 104.985 197.19 104.991C197.183 104.972 197.176 104.954 197.169 104.935C197.128 104.905 197.087 104.878 197.044 104.852C197.017 104.835 196.991 104.819 196.964 104.802C196.951 104.793 196.937 104.785 196.922 104.776C196.85 104.729 196.779 104.681 196.709 104.633C196.518 104.477 196.518 104.477 196.3 104.394C196.3 104.382 196.3 104.369 196.3 104.357C196.25 104.314 196.194 104.279 196.139 104.242C196.116 104.227 196.116 104.227 196.092 104.211C196.07 104.196 196.07 104.196 196.048 104.18C196.027 104.167 196.027 104.167 196.007 104.153C195.967 104.128 195.967 104.128 195.907 104.133C195.9 104.114 195.893 104.096 195.886 104.077C195.847 104.049 195.808 104.023 195.766 103.998C195.74 103.981 195.713 103.964 195.686 103.948C195.672 103.938 195.658 103.929 195.643 103.92C195.559 103.866 195.478 103.811 195.396 103.755C195.26 103.663 195.123 103.57 194.985 103.479C194.969 103.468 194.953 103.458 194.936 103.447C194.888 103.414 194.839 103.382 194.79 103.35C194.723 103.305 194.656 103.261 194.589 103.217C194.565 103.201 194.565 103.201 194.54 103.184C194.461 103.131 194.381 103.078 194.302 103.024C194.28 103.008 194.28 103.008 194.257 102.993C194.229 102.973 194.2 102.954 194.173 102.934C194.105 102.888 194.044 102.852 193.962 102.828C193.962 102.815 193.962 102.803 193.962 102.79C193.942 102.79 193.921 102.79 193.9 102.79C193.893 102.772 193.887 102.753 193.88 102.734C193.838 102.705 193.797 102.678 193.754 102.652C193.727 102.635 193.701 102.618 193.674 102.601C193.66 102.592 193.646 102.584 193.632 102.575C193.564 102.531 193.497 102.486 193.431 102.441C193.309 102.357 193.186 102.275 193.062 102.194C192.941 102.113 192.82 102.033 192.7 101.951C192.532 101.837 192.362 101.724 192.192 101.612C192.158 101.589 192.123 101.566 192.089 101.543C192.037 101.509 191.985 101.475 191.933 101.441C191.918 101.43 191.902 101.42 191.885 101.409C191.863 101.394 191.863 101.394 191.841 101.38C191.828 101.371 191.815 101.363 191.802 101.354C191.77 101.332 191.77 101.332 191.728 101.336C191.728 101.323 191.728 101.311 191.728 101.298C191.685 101.267 191.642 101.238 191.597 101.21C191.569 101.191 191.54 101.173 191.512 101.154C191.496 101.145 191.481 101.135 191.466 101.124C191.382 101.07 191.3 101.015 191.217 100.96C191.192 100.944 191.192 100.944 191.166 100.927C191.058 100.855 190.95 100.782 190.842 100.709C190.757 100.651 190.671 100.594 190.585 100.537C190.461 100.455 190.337 100.373 190.214 100.289C190.2 100.28 190.187 100.271 190.174 100.262C190.102 100.214 190.031 100.165 189.96 100.116C189.945 100.106 189.93 100.095 189.914 100.084C189.885 100.064 189.856 100.044 189.827 100.024C189.752 99.9694 189.752 99.9694 189.659 99.9559C189.652 99.9374 189.645 99.919 189.638 99.8999C189.598 99.8689 189.559 99.8405 189.517 99.8125C189.505 99.8048 189.494 99.797 189.483 99.789C189.413 99.7417 189.413 99.7417 189.328 99.7321C189.321 99.7136 189.314 99.6952 189.307 99.6762C189.268 99.6479 189.229 99.6223 189.187 99.5969C189.038 99.5035 188.892 99.4055 188.747 99.3066C188.605 99.1933 188.605 99.1933 188.438 99.1354C188.438 99.1231 188.438 99.1108 188.438 99.0981C188.407 99.0723 188.407 99.0723 188.366 99.0465C188.35 99.0362 188.335 99.0259 188.319 99.0153C188.301 99.0042 188.284 98.993 188.266 98.9816C188.23 98.9578 188.194 98.9341 188.158 98.9103C188.139 98.8982 188.12 98.886 188.101 98.8735C188.015 98.8175 187.93 98.7608 187.845 98.7042C187.829 98.6934 187.812 98.6826 187.795 98.6715C187.69 98.6014 187.585 98.5306 187.48 98.4594C187.373 98.3872 187.266 98.3155 187.158 98.245C187.146 98.237 187.134 98.2289 187.121 98.2207C187.062 98.1787 187.062 98.1787 186.99 98.1658C186.99 98.1534 186.99 98.1411 186.99 98.1285C186.952 98.0991 186.952 98.0991 186.901 98.0679C186.88 98.0546 186.859 98.0414 186.838 98.0278C186.82 98.0164 186.82 98.0164 186.802 98.0049C186.724 97.9544 186.646 97.9027 186.569 97.8511C186.552 97.8399 186.535 97.8287 186.517 97.8172C186.44 97.7656 186.362 97.7137 186.286 97.66C186.274 97.6512 186.262 97.6425 186.249 97.6335C186.216 97.6103 186.184 97.5868 186.151 97.5634C186.102 97.5265 186.102 97.5265 186.038 97.5318C186.032 97.5133 186.025 97.4948 186.018 97.4758C185.976 97.4464 185.936 97.4196 185.892 97.3931C185.866 97.3765 185.839 97.3599 185.813 97.3432C185.792 97.3301 185.792 97.3301 185.771 97.3168C185.699 97.2705 185.628 97.2222 185.557 97.174C185.367 97.0182 185.367 97.0182 185.149 96.935C185.149 96.9227 185.149 96.9104 185.149 96.8978C185.099 96.8556 185.042 96.8203 184.987 96.7835C184.972 96.773 184.957 96.7625 184.941 96.7517C184.926 96.7418 184.911 96.7319 184.896 96.7216C184.883 96.7125 184.869 96.7034 184.855 96.6939C184.816 96.6692 184.816 96.6692 184.756 96.674C184.749 96.6555 184.742 96.6371 184.735 96.618C184.695 96.5898 184.656 96.5642 184.615 96.5388C184.588 96.5221 184.562 96.5054 184.535 96.4887C184.521 96.4796 184.506 96.4705 184.491 96.4611C184.408 96.4076 184.326 96.3519 184.245 96.2964C184.108 96.2037 183.971 96.1115 183.834 96.0202C183.818 96.0095 183.802 95.9989 183.785 95.9879C183.736 95.9555 183.687 95.9232 183.638 95.8908C183.572 95.8465 183.505 95.8023 183.438 95.758C183.422 95.7472 183.406 95.7365 183.389 95.7255C183.309 95.6725 183.23 95.6191 183.151 95.5649C183.136 95.5546 183.121 95.5444 183.105 95.5338C183.077 95.5144 183.049 95.495 183.021 95.4755C182.953 95.4291 182.893 95.3928 182.811 95.3687C182.811 95.3564 182.811 95.3441 182.811 95.3314C182.79 95.3314 182.77 95.3314 182.749 95.3314C182.742 95.3129 182.735 95.2945 182.728 95.2755C182.687 95.2461 182.646 95.2192 182.603 95.1927C182.576 95.176 182.549 95.1592 182.523 95.1424C182.509 95.1336 182.495 95.1249 182.48 95.1158C182.412 95.0724 182.346 95.0271 182.279 94.9818C182.157 94.8987 182.034 94.8164 181.911 94.7347C181.787 94.6524 181.663 94.5698 181.54 94.4865C181.526 94.4774 181.513 94.4683 181.499 94.459C181.436 94.416 181.372 94.3728 181.309 94.3292C181.298 94.3213 181.286 94.3134 181.274 94.3052C181.243 94.284 181.212 94.2627 181.182 94.2414C181.139 94.2091 181.139 94.2091 181.094 94.2126Z" fill="white"/>
<path d="M148.239 92.9446C148.239 140.788 148.239 188.632 148.239 237.925C121.1 237.925 93.9614 237.925 66 237.925C65.9908 215.313 65.9908 215.313 65.9891 206.764C65.9891 206.617 65.989 206.469 65.989 206.322C65.989 206.291 65.989 206.261 65.989 206.23C65.9885 204.087 65.9881 201.945 65.9876 199.803C65.9876 199.598 65.9875 199.392 65.9875 199.187C65.9868 196.016 65.9859 192.844 65.9844 189.673C65.9844 189.639 65.9844 189.605 65.9844 189.57C65.9838 188.448 65.9833 187.325 65.9828 186.203C65.9823 185.188 65.9818 184.174 65.9813 183.16C65.9813 183.127 65.9813 183.093 65.9813 183.059C65.9804 180.973 65.9797 178.887 65.9793 176.801C65.9793 176.753 65.9793 176.753 65.9793 176.703C65.979 175.289 65.9788 173.874 65.9787 172.46C65.9786 171.891 65.9785 171.322 65.9785 170.753C65.9784 170.659 65.9784 170.564 65.9784 170.47C65.9782 169.026 65.9779 167.582 65.977 166.138C65.9769 166.107 65.9769 166.076 65.9769 166.044C65.9766 165.543 65.9763 165.041 65.9759 164.54C65.975 163.118 65.9741 161.695 65.9741 160.273C65.9741 160.244 65.9741 160.215 65.9741 160.185C65.974 159.556 65.9741 158.927 65.9742 158.298C65.9742 158.047 65.9743 157.796 65.9743 157.546C65.9743 157.518 65.9743 157.491 65.9743 157.463C65.9744 156.593 65.9738 155.724 65.9728 154.855C65.9718 154 65.9715 153.145 65.9723 152.289C65.9724 152.172 65.9724 152.056 65.9725 151.939C65.9725 151.916 65.9726 151.893 65.9726 151.869C65.9728 151.507 65.9723 151.145 65.9715 150.783C65.9707 150.43 65.9707 150.076 65.9715 149.722C65.972 149.516 65.9719 149.309 65.9708 149.102C65.9702 148.966 65.9703 148.829 65.9712 148.693C65.9717 148.615 65.9718 148.538 65.9709 148.46C65.9701 148.39 65.9703 148.32 65.9714 148.25C65.9717 148.213 65.9708 148.175 65.97 148.138C65.9724 148.04 65.976 147.978 66.0499 147.902C66.1072 147.859 66.1652 147.822 66.2276 147.786C66.2532 147.768 66.2787 147.751 66.3039 147.733C66.3267 147.719 66.3496 147.704 66.3724 147.689C66.3991 147.671 66.4257 147.654 66.4523 147.637C66.4731 147.623 66.4731 147.623 66.4943 147.609C66.5729 147.558 66.6511 147.505 66.7293 147.453C66.8289 147.387 66.9284 147.321 67.0282 147.255C67.2028 147.14 67.376 147.023 67.5478 146.904C67.6766 146.816 67.806 146.728 67.9385 146.644C68.0615 146.566 68.1815 146.484 68.3019 146.402C68.422 146.321 68.5426 146.24 68.6638 146.16C68.7967 146.072 68.929 145.983 69.0608 145.894C69.1843 145.81 69.3086 145.728 69.4331 145.645C69.5374 145.576 69.6413 145.506 69.7448 145.436C69.8637 145.355 69.9831 145.275 70.103 145.196C70.1194 145.185 70.1359 145.174 70.1529 145.163C70.2354 145.108 70.3179 145.054 70.4004 144.999C70.575 144.884 70.7483 144.767 70.9202 144.648C71.0508 144.558 71.1822 144.469 71.3167 144.384C71.4196 144.318 71.5204 144.25 71.621 144.182C71.7295 144.108 71.8387 144.035 71.9482 143.963C72.0693 143.883 72.1901 143.802 72.3102 143.72C72.447 143.628 72.5847 143.536 72.7226 143.445C72.8404 143.367 72.9575 143.288 73.0743 143.209C73.1998 143.124 73.3261 143.04 73.4526 142.956C73.5411 142.897 73.6293 142.838 73.7171 142.779C73.8205 142.709 73.9245 142.639 74.0287 142.57C74.0455 142.559 74.0623 142.548 74.0796 142.536C74.1636 142.481 74.2476 142.425 74.3317 142.37C74.5062 142.254 74.6793 142.138 74.8511 142.019C74.9798 141.93 75.1092 141.843 75.2418 141.759C75.3648 141.68 75.4848 141.598 75.6051 141.517C75.7252 141.435 75.8459 141.354 75.967 141.274C76.1 141.186 76.2323 141.097 76.3641 141.008C76.4875 140.924 76.6119 140.842 76.7363 140.76C76.8541 140.681 76.9712 140.603 77.088 140.523C77.2135 140.438 77.3398 140.355 77.4663 140.271C77.5548 140.212 77.643 140.153 77.7308 140.094C77.8342 140.024 77.9382 139.954 78.0424 139.885C78.0592 139.874 78.076 139.863 78.0933 139.851C78.1773 139.796 78.2613 139.74 78.3454 139.684C78.5199 139.569 78.693 139.452 78.8648 139.334C78.9935 139.245 79.1229 139.158 79.2555 139.073C79.3785 138.995 79.4985 138.913 79.6188 138.832C79.7389 138.75 79.8596 138.669 79.9807 138.589C80.1137 138.501 80.246 138.412 80.3778 138.323C80.5012 138.239 80.6256 138.157 80.75 138.074C80.8543 138.005 80.9582 137.936 81.0617 137.865C81.1806 137.785 81.3001 137.705 81.4199 137.625C81.4364 137.614 81.4529 137.603 81.4699 137.592C81.5523 137.537 81.6348 137.483 81.7174 137.428C81.892 137.313 82.0652 137.196 82.2371 137.077C82.3678 136.987 82.4992 136.899 82.6336 136.813C82.7366 136.748 82.8373 136.68 82.938 136.611C83.0465 136.537 83.1557 136.465 83.2651 136.392C83.3863 136.312 83.507 136.231 83.6272 136.15C83.764 136.057 83.9017 135.965 84.0396 135.874C84.1573 135.796 84.2745 135.717 84.3913 135.638C84.5167 135.553 84.6431 135.469 84.7695 135.385C84.858 135.327 84.9463 135.268 85.034 135.208C85.2227 135.08 85.4132 134.955 85.6034 134.829C85.6545 134.795 85.7057 134.761 85.7569 134.727C85.7732 134.716 85.7895 134.705 85.8063 134.694C85.9216 134.617 86.0362 134.54 86.1501 134.462C86.1926 134.434 86.1926 134.434 86.2133 134.434C86.2133 162.574 86.2133 190.714 86.2133 219.707C100.012 219.707 113.81 219.707 128.026 219.707C128.024 216.278 128.022 212.848 128.02 209.314C128.017 204.862 128.017 204.862 128.016 202.865C128.016 202.796 128.016 202.727 128.016 202.657C128.016 202.605 128.016 202.605 128.016 202.552C128.016 202.444 128.016 202.335 128.016 202.227C128.014 198.338 128.012 194.449 128.009 187.445C128.009 187.324 128.009 187.203 128.009 187.082C128.008 183.66 128.007 180.237 128.006 176.814C128.006 176.687 128.006 176.56 128.006 176.434C128.006 176.392 128.006 176.35 128.006 176.307C128.005 174.734 128.005 173.16 128.005 171.587C128.004 171.416 128.004 171.245 128.004 171.074C128.003 167.039 128.002 163.003 127.999 158.967C127.999 158.925 127.999 158.882 127.999 158.838C127.998 157.425 127.997 156.012 127.996 154.599C127.995 153.323 127.995 152.046 127.994 150.769C127.994 150.727 127.994 150.685 127.994 150.642C127.992 148.016 127.991 145.39 127.99 142.765C127.99 142.704 127.99 142.704 127.99 142.642C127.99 140.861 127.989 139.081 127.989 137.3C127.989 136.584 127.989 135.868 127.989 135.151C127.989 135.033 127.989 134.914 127.989 134.795C127.988 132.978 127.988 131.16 127.986 129.342C127.986 129.303 127.986 129.264 127.986 129.224C127.986 128.593 127.985 127.962 127.984 127.331C127.983 125.54 127.981 123.75 127.981 121.959C127.981 121.923 127.981 121.886 127.981 121.849C127.981 121.057 127.981 120.265 127.981 119.473C127.981 119.157 127.982 118.842 127.982 118.526C127.982 118.491 127.982 118.457 127.982 118.421C127.982 117.327 127.981 116.233 127.979 115.139C127.977 114.063 127.977 112.986 127.978 111.91C127.978 111.762 127.978 111.615 127.979 111.468C127.979 111.425 127.979 111.425 127.979 111.38C127.979 110.925 127.978 110.469 127.977 110.014C127.975 109.568 127.975 109.123 127.977 108.678C127.978 108.418 127.977 108.158 127.976 107.898C127.974 107.726 127.975 107.554 127.976 107.382C127.977 107.284 127.977 107.187 127.976 107.089C127.967 106.485 127.967 106.485 128.11 106.345C128.189 106.285 128.273 106.244 128.367 106.207C128.458 106.167 128.535 106.11 128.614 106.055C128.633 106.043 128.651 106.031 128.669 106.018C128.804 105.929 128.937 105.838 129.071 105.748C129.208 105.655 129.345 105.564 129.483 105.473C129.57 105.415 129.657 105.357 129.743 105.298C129.847 105.228 129.951 105.159 130.055 105.09C130.072 105.078 130.088 105.067 130.106 105.056C130.19 105 130.274 104.944 130.358 104.889C130.532 104.774 130.705 104.657 130.877 104.538C131.006 104.45 131.135 104.362 131.268 104.278C131.391 104.2 131.511 104.118 131.631 104.036C131.751 103.955 131.872 103.874 131.993 103.794C132.126 103.706 132.258 103.617 132.39 103.527C132.514 103.444 132.638 103.361 132.762 103.279C132.88 103.201 132.997 103.122 133.114 103.043C133.24 102.958 133.366 102.874 133.492 102.79C133.581 102.732 133.669 102.673 133.757 102.613C133.86 102.543 133.964 102.474 134.069 102.404C134.085 102.393 134.102 102.382 134.12 102.371C134.203 102.315 134.287 102.259 134.372 102.204C134.546 102.088 134.719 101.972 134.891 101.853C135.02 101.764 135.149 101.677 135.282 101.593C135.405 101.514 135.525 101.433 135.645 101.351C135.765 101.269 135.886 101.189 136.007 101.108C136.14 101.02 136.272 100.932 136.404 100.842C136.529 100.757 136.656 100.674 136.782 100.59C136.87 100.531 136.959 100.472 137.047 100.413C137.15 100.343 137.254 100.273 137.358 100.204C137.375 100.193 137.392 100.182 137.409 100.17C137.493 100.115 137.577 100.059 137.661 100.003C137.836 99.8881 138.009 99.7714 138.181 99.6529C138.309 99.564 138.439 99.4766 138.571 99.3925C138.694 99.3141 138.814 99.2323 138.935 99.1506C139.055 99.0691 139.175 98.9884 139.296 98.9081C139.429 98.8201 139.562 98.7314 139.694 98.642C139.817 98.5584 139.941 98.4759 140.066 98.3935C140.184 98.3154 140.301 98.2365 140.417 98.1573C140.543 98.0723 140.669 97.9885 140.796 97.9047C140.884 97.846 140.972 97.7871 141.06 97.7275C141.164 97.6574 141.268 97.5881 141.372 97.5189C141.389 97.5078 141.405 97.4966 141.423 97.4851C141.507 97.4294 141.591 97.3738 141.675 97.3183C141.849 97.2029 142.022 97.0862 142.194 96.9677C142.323 96.8788 142.452 96.7915 142.585 96.7073C142.708 96.6289 142.828 96.5471 142.948 96.4654C143.068 96.3839 143.189 96.3032 143.31 96.223C143.443 96.1349 143.575 96.0462 143.707 95.9568C143.831 95.8732 143.955 95.7907 144.079 95.7083C144.184 95.6391 144.288 95.5694 144.391 95.4992C144.51 95.4186 144.63 95.3387 144.749 95.2591C144.766 95.2482 144.782 95.2373 144.799 95.226C144.882 95.1713 144.964 95.1167 145.047 95.0622C145.221 94.9468 145.395 94.83 145.567 94.7114C145.697 94.6212 145.829 94.5326 145.963 94.4471C146.066 94.3815 146.167 94.3135 146.267 94.245C146.376 94.1714 146.485 94.0986 146.595 94.0261C146.716 93.9458 146.836 93.8652 146.957 93.7837C147.093 93.6909 147.231 93.5993 147.369 93.508C147.474 93.4385 147.578 93.3683 147.682 93.2977C147.804 93.2147 147.928 93.1329 148.052 93.0518C148.068 93.0411 148.084 93.0304 148.101 93.0194C148.116 93.0096 148.131 92.9998 148.147 92.9897C148.167 92.9766 148.167 92.9766 148.187 92.9633C148.219 92.9446 148.219 92.9446 148.239 92.9446Z" fill="white"/>
<path d="M255.761 117.577C255.822 117.605 255.869 117.63 255.924 117.666C255.939 117.677 255.955 117.687 255.971 117.698C255.987 117.709 256.004 117.72 256.021 117.731C256.056 117.755 256.092 117.779 256.127 117.802C256.145 117.815 256.163 117.827 256.182 117.839C256.251 117.885 256.319 117.931 256.388 117.976C256.538 118.075 256.687 118.175 256.835 118.276C256.942 118.348 257.05 118.42 257.157 118.491C257.292 118.58 257.426 118.67 257.559 118.761C257.666 118.833 257.774 118.905 257.881 118.976C258.016 119.065 258.15 119.155 258.283 119.245C258.409 119.33 258.535 119.414 258.662 119.498C258.75 119.557 258.838 119.616 258.926 119.675C259.03 119.745 259.134 119.815 259.238 119.884C259.255 119.895 259.271 119.906 259.289 119.918C259.373 119.973 259.457 120.029 259.541 120.084C259.715 120.2 259.888 120.316 260.06 120.435C260.189 120.524 260.318 120.611 260.451 120.695C260.574 120.774 260.694 120.856 260.814 120.937C260.934 121.019 261.055 121.1 261.176 121.18C261.309 121.268 261.441 121.356 261.573 121.446C261.698 121.531 261.825 121.615 261.951 121.698C262.04 121.757 262.128 121.816 262.216 121.876C262.319 121.946 262.423 122.015 262.527 122.084C262.544 122.095 262.561 122.106 262.578 122.118C262.662 122.174 262.746 122.229 262.83 122.285C263.005 122.4 263.178 122.517 263.35 122.635C263.479 122.724 263.608 122.812 263.74 122.896C263.863 122.974 263.983 123.056 264.104 123.138C264.224 123.219 264.345 123.3 264.466 123.38C264.599 123.468 264.731 123.557 264.863 123.646C264.97 123.719 265.077 123.79 265.185 123.861C265.319 123.951 265.453 124.04 265.587 124.131C265.712 124.216 265.839 124.3 265.965 124.384C266.053 124.442 266.142 124.501 266.229 124.561C266.333 124.631 266.437 124.7 266.541 124.769C266.558 124.78 266.575 124.792 266.592 124.803C266.676 124.859 266.76 124.914 266.844 124.97C267.019 125.085 267.192 125.202 267.363 125.321C267.492 125.409 267.622 125.497 267.754 125.581C267.877 125.659 267.997 125.741 268.117 125.823C268.238 125.904 268.358 125.985 268.479 126.065C268.612 126.153 268.745 126.242 268.876 126.331C269.002 126.416 269.128 126.5 269.255 126.584C269.343 126.643 269.431 126.702 269.519 126.761C269.622 126.831 269.726 126.901 269.831 126.97C269.847 126.981 269.864 126.992 269.882 127.003C269.966 127.059 270.05 127.115 270.134 127.17C270.308 127.286 270.481 127.402 270.653 127.521C270.782 127.61 270.911 127.697 271.044 127.781C271.167 127.86 271.287 127.942 271.407 128.023C271.527 128.105 271.648 128.185 271.769 128.266C271.902 128.354 272.034 128.442 272.166 128.532C272.273 128.604 272.38 128.676 272.488 128.747C272.622 128.836 272.756 128.926 272.89 129.017C273.015 129.101 273.142 129.185 273.268 129.269C273.357 129.328 273.445 129.387 273.533 129.446C273.636 129.516 273.74 129.586 273.844 129.655C273.87 129.672 273.87 129.672 273.895 129.689C273.979 129.744 274.063 129.8 274.147 129.856C274.322 129.971 274.495 130.088 274.667 130.206C274.795 130.295 274.925 130.382 275.057 130.466C275.178 130.543 275.296 130.624 275.414 130.704C275.43 130.715 275.446 130.726 275.462 130.737C275.479 130.749 275.495 130.76 275.512 130.773C275.564 130.808 275.618 130.834 275.677 130.861C275.813 130.927 275.943 130.999 275.997 131.136C276.032 131.3 276.027 131.467 276.024 131.634C276.022 131.712 276.024 131.789 276.024 131.867C276.026 132.003 276.025 132.14 276.024 132.276C276.022 132.482 276.023 132.687 276.024 132.892C276.025 133.243 276.025 133.594 276.023 133.945C276.022 134.303 276.021 134.661 276.022 135.018C276.022 135.041 276.022 135.064 276.022 135.087C276.022 135.203 276.022 135.319 276.022 135.434C276.023 136.28 276.023 137.126 276.021 137.972C276.019 138.83 276.018 139.688 276.018 140.546C276.018 140.573 276.018 140.6 276.019 140.628C276.019 140.875 276.019 141.123 276.019 141.371C276.019 141.992 276.019 142.613 276.019 143.234C276.019 143.263 276.019 143.291 276.019 143.321C276.019 144.725 276.017 146.129 276.016 147.533C276.015 148.027 276.014 148.522 276.014 149.016C276.014 149.062 276.014 149.062 276.014 149.109C276.012 150.533 276.012 151.956 276.011 153.379C276.011 153.472 276.011 153.565 276.011 153.658C276.011 154.22 276.011 154.781 276.011 155.342C276.011 156.737 276.01 158.132 276.01 159.528C276.01 159.559 276.01 159.591 276.01 159.624C276.009 161.681 276.008 163.739 276.006 165.796C276.006 165.845 276.006 165.845 276.006 165.896C276.005 166.896 276.005 167.896 276.004 168.896C276.003 170.002 276.002 171.109 276.001 172.216C276.001 172.249 276.001 172.282 276.001 172.316C275.998 175.477 275.997 178.637 275.996 181.797C275.996 181.931 275.996 182.065 275.995 182.199C275.995 183.431 275.995 184.662 275.994 185.894C275.994 185.927 275.994 185.96 275.994 185.993C275.994 186.093 275.994 186.192 275.994 186.291C275.993 188.97 275.992 191.649 275.991 194.328C275.991 194.423 275.991 194.517 275.991 194.612C275.989 197.683 275.988 200.755 275.984 206.179C275.984 206.263 275.984 206.347 275.984 206.43C275.984 206.458 275.984 206.485 275.984 206.513C275.984 206.563 275.984 206.613 275.984 206.663C275.981 211.036 275.977 215.409 275.974 219.782C289.772 219.782 303.57 219.782 317.787 219.782C317.787 211.272 317.787 202.761 317.787 193.993C317.848 194.021 317.896 194.045 317.95 194.082C317.965 194.092 317.981 194.103 317.997 194.113C318.013 194.124 318.03 194.135 318.047 194.147C318.082 194.171 318.118 194.194 318.153 194.218C318.171 194.23 318.189 194.242 318.208 194.255C318.277 194.301 318.345 194.346 318.414 194.392C318.564 194.491 318.713 194.591 318.861 194.691C318.987 194.776 319.113 194.86 319.239 194.944C319.328 195.003 319.416 195.062 319.504 195.121C319.607 195.191 319.711 195.261 319.816 195.33C319.832 195.341 319.849 195.352 319.867 195.364C319.95 195.419 320.034 195.475 320.119 195.53C320.293 195.646 320.466 195.762 320.638 195.881C320.767 195.97 320.896 196.057 321.029 196.141C321.152 196.22 321.272 196.302 321.392 196.383C321.512 196.465 321.633 196.546 321.754 196.626C321.887 196.714 322.019 196.803 322.151 196.892C322.258 196.964 322.365 197.036 322.473 197.107C322.607 197.196 322.741 197.286 322.875 197.377C323 197.462 323.127 197.545 323.253 197.629C323.342 197.688 323.43 197.747 323.518 197.806C323.621 197.876 323.725 197.946 323.829 198.015C323.846 198.026 323.863 198.037 323.88 198.049C323.964 198.104 324.048 198.16 324.132 198.216C324.307 198.331 324.48 198.448 324.652 198.566C324.78 198.655 324.91 198.742 325.042 198.827C325.165 198.905 325.285 198.987 325.406 199.068C325.526 199.15 325.646 199.231 325.768 199.311C325.901 199.399 326.033 199.488 326.165 199.577C326.271 199.649 326.379 199.721 326.487 199.792C326.608 199.873 326.728 199.953 326.849 200.035C326.968 200.115 327.087 200.195 327.207 200.275C327.223 200.286 327.24 200.297 327.257 200.308C327.339 200.363 327.422 200.417 327.504 200.472C327.679 200.587 327.852 200.704 328.024 200.822C328.155 200.913 328.286 201.001 328.42 201.087C328.523 201.152 328.624 201.22 328.725 201.289C328.833 201.362 328.943 201.435 329.052 201.508C329.187 201.597 329.321 201.687 329.454 201.777C329.561 201.85 329.668 201.921 329.776 201.993C329.911 202.082 330.045 202.172 330.178 202.262C330.304 202.347 330.43 202.431 330.556 202.515C330.645 202.573 330.733 202.632 330.821 202.692C330.924 202.762 331.028 202.831 331.133 202.9C331.149 202.912 331.166 202.923 331.183 202.934C331.267 202.99 331.351 203.046 331.436 203.101C331.61 203.216 331.783 203.333 331.955 203.452C332.084 203.541 332.213 203.628 332.346 203.712C332.469 203.79 332.589 203.872 332.709 203.954C332.829 204.035 332.95 204.116 333.071 204.196C333.204 204.284 333.336 204.373 333.468 204.463C333.575 204.535 333.682 204.606 333.79 204.678C333.924 204.767 334.058 204.857 334.192 204.947C334.317 205.032 334.444 205.116 334.57 205.2C334.659 205.259 334.747 205.317 334.835 205.377C334.938 205.447 335.042 205.516 335.146 205.586C335.163 205.597 335.18 205.608 335.197 205.619C335.281 205.675 335.365 205.731 335.449 205.786C335.624 205.902 335.797 206.018 335.969 206.137C336.097 206.226 336.227 206.313 336.359 206.397C336.482 206.476 336.602 206.558 336.723 206.639C336.843 206.721 336.963 206.801 337.085 206.882C337.204 206.961 337.323 207.04 337.441 207.121C337.627 207.246 337.813 207.37 338 207.493C338 217.561 338 227.628 338 238C310.861 238 283.722 238 255.761 238C255.761 198.261 255.761 158.521 255.761 117.577Z" fill="white"/>
</g>
<path d="M71.16 311L76.152 275.24H88.248C90.456 275.24 92.376 275.672 94.008 276.536C95.64 277.368 96.904 278.568 97.8 280.136C98.696 281.704 99.144 283.576 99.144 285.752C99.144 287.96 98.6 289.944 97.512 291.704C96.456 293.464 94.968 294.84 93.048 295.832C91.128 296.824 88.872 297.32 86.28 297.32H77.832L75.912 311H71.16ZM78.456 293H86.568C88.104 293 89.448 292.68 90.6 292.04C91.784 291.4 92.712 290.536 93.384 289.448C94.056 288.36 94.392 287.096 94.392 285.656C94.392 283.768 93.8 282.28 92.616 281.192C91.464 280.104 89.912 279.56 87.96 279.56H80.328L78.456 293ZM102.051 311L107.043 275.24H119.139C121.347 275.24 123.267 275.672 124.899 276.536C126.531 277.368 127.795 278.568 128.691 280.136C129.587 281.704 130.035 283.576 130.035 285.752C130.035 287.512 129.699 289.128 129.027 290.6C128.355 292.072 127.395 293.336 126.147 294.392C124.899 295.416 123.411 296.184 121.683 296.696L127.875 311H122.691L116.067 295.4L118.947 297.32H108.723L106.803 311H102.051ZM109.347 293H117.459C118.995 293 120.339 292.68 121.491 292.04C122.675 291.4 123.603 290.536 124.275 289.448C124.947 288.36 125.283 287.096 125.283 285.656C125.283 283.768 124.691 282.28 123.507 281.192C122.355 280.104 120.803 279.56 118.851 279.56H111.219L109.347 293ZM151.844 311.576C149.412 311.576 147.156 311.16 145.076 310.328C143.028 309.464 141.22 308.28 139.652 306.776C138.116 305.24 136.916 303.432 136.052 301.352C135.22 299.24 134.804 296.92 134.804 294.392C134.804 291.64 135.284 289.08 136.244 286.712C137.236 284.344 138.596 282.248 140.324 280.424C142.084 278.6 144.132 277.192 146.468 276.2C148.836 275.176 151.38 274.664 154.1 274.664C156.564 274.664 158.836 275.08 160.916 275.912C162.996 276.744 164.804 277.928 166.34 279.464C167.876 281 169.076 282.824 169.94 284.936C170.804 287.016 171.236 289.304 171.236 291.8C171.236 294.552 170.74 297.128 169.748 299.528C168.756 301.896 167.38 303.992 165.62 305.816C163.86 307.608 161.796 309.016 159.428 310.04C157.092 311.064 154.564 311.576 151.844 311.576ZM151.892 307.208C153.972 307.208 155.892 306.808 157.652 306.008C159.444 305.176 160.996 304.056 162.308 302.648C163.62 301.24 164.644 299.624 165.38 297.8C166.116 295.944 166.484 293.976 166.484 291.896C166.484 289.464 165.956 287.288 164.9 285.368C163.876 283.416 162.436 281.88 160.58 280.76C158.756 279.608 156.596 279.032 154.1 279.032C152.02 279.032 150.084 279.448 148.292 280.28C146.532 281.08 144.996 282.184 143.684 283.592C142.372 285 141.348 286.616 140.612 288.44C139.876 290.264 139.508 292.216 139.508 294.296C139.508 296.728 140.036 298.92 141.092 300.872C142.148 302.824 143.588 304.376 145.412 305.528C147.268 306.648 149.428 307.208 151.892 307.208ZM175.598 311L180.59 275.24H191.726C195.022 275.24 197.87 275.928 200.27 277.304C202.702 278.648 204.574 280.52 205.886 282.92C207.23 285.288 207.902 288.04 207.902 291.176C207.902 294.056 207.454 296.712 206.558 299.144C205.662 301.544 204.35 303.64 202.622 305.432C200.926 307.192 198.878 308.568 196.478 309.56C194.078 310.52 191.374 311 188.366 311H175.598ZM180.926 306.68H188.462C190.638 306.68 192.606 306.312 194.366 305.576C196.126 304.84 197.646 303.8 198.926 302.456C200.238 301.08 201.246 299.464 201.95 297.608C202.654 295.752 203.006 293.704 203.006 291.464C203.006 289.032 202.526 286.92 201.566 285.128C200.638 283.336 199.294 281.96 197.534 281C195.806 280.04 193.726 279.56 191.294 279.56H184.766L180.926 306.68ZM224.66 311.576C222.004 311.576 219.732 311.032 217.844 309.944C215.956 308.824 214.564 307.304 213.668 305.384C212.772 303.464 212.484 301.288 212.804 298.856L216.116 275.24H220.868L217.604 298.904C217.38 300.536 217.524 301.976 218.036 303.224C218.58 304.472 219.444 305.448 220.628 306.152C221.812 306.856 223.236 307.208 224.9 307.208C226.564 307.208 228.068 306.856 229.412 306.152C230.788 305.448 231.924 304.472 232.82 303.224C233.716 301.976 234.276 300.504 234.5 298.808L237.812 275.24H242.516L239.156 299.096C238.836 301.528 238.004 303.688 236.66 305.576C235.348 307.432 233.668 308.904 231.62 309.992C229.572 311.048 227.252 311.576 224.66 311.576ZM245.207 311L250.199 275.24H254.951L252.119 295.352L250.919 294.872L270.743 275.24H276.791L260.087 291.8L260.807 288.44L272.519 311H267.239L258.167 293.768L251.399 300.44L249.959 311H245.207ZM289.574 311.576C287.334 311.576 285.286 311.176 283.43 310.376C281.606 309.544 280.07 308.392 278.822 306.92C277.574 305.416 276.726 303.688 276.278 301.736L280.502 300.296C281.078 302.6 282.166 304.36 283.766 305.576C285.398 306.76 287.398 307.352 289.766 307.352C291.366 307.352 292.726 307.096 293.846 306.584C294.998 306.04 295.862 305.304 296.438 304.376C297.046 303.448 297.35 302.424 297.35 301.304C297.35 300.056 296.966 299.032 296.198 298.232C295.462 297.4 294.358 296.76 292.886 296.312L286.646 294.296C284.31 293.56 282.534 292.424 281.318 290.888C280.102 289.32 279.494 287.48 279.494 285.368C279.494 283.416 280.006 281.624 281.03 279.992C282.054 278.36 283.462 277.064 285.254 276.104C287.078 275.144 289.158 274.664 291.494 274.664C293.638 274.664 295.542 275.064 297.206 275.864C298.902 276.632 300.294 277.672 301.382 278.984C302.502 280.296 303.254 281.784 303.638 283.448L299.51 284.936C299.03 283.016 298.07 281.528 296.63 280.472C295.222 279.416 293.494 278.888 291.446 278.888C290.038 278.888 288.774 279.144 287.654 279.656C286.566 280.168 285.718 280.888 285.11 281.816C284.502 282.712 284.198 283.768 284.198 284.984C284.198 286.136 284.55 287.176 285.254 288.104C285.99 289 287.142 289.688 288.71 290.168L294.374 291.992C296.966 292.824 298.902 294.008 300.182 295.544C301.462 297.08 302.102 298.904 302.102 301.016C302.102 302.904 301.574 304.648 300.518 306.248C299.494 307.848 298.054 309.144 296.198 310.136C294.342 311.096 292.134 311.576 289.574 311.576ZM307.691 311L312.683 275.24H317.435L312.443 311H307.691Z" fill="white"/>
<defs>
<clipPath id="clip0_679_261">
<rect width="272" height="180" fill="white" transform="translate(66 58)"/>
</clipPath>
</defs>
</svg>
